# xmcd
#
# Track frame offsets:
#	150
#	6294
#	15124
#	21219
#	27580
#	35736
#	43929
#	52881
#	60553
#	67733
#	77771
#	86186
#
# Disc length: 1264 seconds
# Revision: 0
# Processed by: cddbd v1.5.2PL0 Copyright (c) Steve Scherf et al.
# Submitted via: dBpowerAMP V12.0
#
DISCID=8f04ee0c
DTITLE=Steve Dickson - Only The Classics
DYEAR=1900
DGENRE=Instrumental
TTITLE0=Boston Boy
TTITLE1=Back-Up And Push
TTITLE2=Fiddler's Dream
TTITLE3=Gray Eagle
TTITLE4=Blue Moon Of Kentucky/Uncle Penn Medley
TTITLE5=Flint Hill Special
TTITLE6=Maiden's Prayer
TTITLE7=Salty Dog Blues
TTITLE8=Pig In The Pen
TTITLE9=I'll Be There
TTITLE10=Sleigh Ride
TTITLE11=Ice Cold Love
EXTD=
EXTT0=
EXTT1=
EXTT2=
EXTT3=
EXTT4=
EXTT5=
EXTT6=
EXTT7=
EXTT8=
EXTT9=
EXTT10=
EXTT11=
PLAYORDER=
